<svg width="1200" height="630" viewBox="0 0 1200 630" fill="none" xmlns="http://www.w3.org/2000/svg">
  <rect width="1200" height="630" fill="#0D1014"/>
  <rect x="38" y="38" width="1124" height="554" rx="26" stroke="#FFFFFF" stroke-opacity="0.12" stroke-width="2"/>
  <path d="M0 0H1200V630H0V0Z" fill="url(#paint0_radial)"/>
  <path d="M0 0H1200V630H0V0Z" fill="url(#paint1_linear)" fill-opacity="0.08"/>
  <g opacity="0.14">
    <path d="M0 126H1200" stroke="white"/>
    <path d="M0 252H1200" stroke="white"/>
    <path d="M0 378H1200" stroke="white"/>
    <path d="M0 504H1200" stroke="white"/>
    <path d="M150 0V630" stroke="white"/>
    <path d="M300 0V630" stroke="white"/>
    <path d="M450 0V630" stroke="white"/>
    <path d="M600 0V630" stroke="white"/>
    <path d="M750 0V630" stroke="white"/>
    <path d="M900 0V630" stroke="white"/>
    <path d="M1050 0V630" stroke="white"/>
  </g>
  <text x="84" y="122" fill="#D9FF57" font-family="Avenir Next, PingFang SC, sans-serif" font-size="22" letter-spacing="8">405CORE / OUTSOURCED ENGINEERING UNIT</text>
  <text x="84" y="300" fill="#F5F1E8" font-family="Avenir Next Condensed, Arial Narrow, Helvetica Neue, sans-serif" font-size="170" font-weight="700" letter-spacing="-10">405core</text>
  <text x="88" y="378" fill="#F5F1E8" font-family="Avenir Next Condensed, Arial Narrow, Helvetica Neue, sans-serif" font-size="52" font-weight="700" letter-spacing="-1">4 engineers, high-density delivery.</text>
  <text x="88" y="448" fill="#A7ADB8" font-family="Avenir Next, PingFang SC, sans-serif" font-size="28">Fast response. Clear boundaries. GitHub Pages ready brand fronts and product surfaces.</text>
  <text x="900" y="520" fill="#FFFFFF" fill-opacity="0.18" font-family="Avenir Next Condensed, Arial Narrow, Helvetica Neue, sans-serif" font-size="220" font-weight="700" letter-spacing="-16">405</text>
  <defs>
    <radialGradient id="paint0_radial" cx="0" cy="0" r="1" gradientUnits="userSpaceOnUse" gradientTransform="translate(974 126) rotate(124.119) scale(268.556 439.276)">
      <stop stop-color="#D9FF57" stop-opacity="0.18"/>
      <stop offset="1" stop-color="#D9FF57" stop-opacity="0"/>
    </radialGradient>
    <linearGradient id="paint1_linear" x1="0" y1="0" x2="1200" y2="630" gradientUnits="userSpaceOnUse">
      <stop stop-color="white"/>
      <stop offset="1" stop-color="white" stop-opacity="0"/>
    </linearGradient>
  </defs>
</svg>
